<svg id="Capa_1" enable-background="new 0 0 512 512" height="512" viewBox="0 0 512 512" width="512" xmlns="http://www.w3.org/2000/svg"><g><path d="m490.047 368.919c13.946-23.742 21.953-51.394 21.953-80.919 0-88.366-71.634-160-160-160s-160 71.634-160 160 71.634 160 160 160c28.164 0 54.622-7.286 77.609-20.062l77.347 20.062z" fill="#3a80e8"/><path d="m384 256c0 106.04-85.96 192-192 192-33.93 0-65.79-8.81-93.45-24.25l-93.51 24.25 20.56-96.15c-16.28-28.21-25.6-60.94-25.6-95.85 0-106.04 85.96-192 192-192s192 85.96 192 192z" fill="#ffe76a"/><path d="m384 256c0 106.04-85.96 192-192 192v-384c106.04 0 192 85.96 192 192z" fill="#ffc400"/><path d="m323.58 256-131.58 75.99-65.79 37.99c-39.33-22.75-65.79-65.28-65.79-113.98 0 0 65.79-113.97 65.78-113.97h.01c19.36-11.2 41.82-17.61 65.79-17.61 72.67 0 131.58 58.91 131.58 131.58z" fill="#00b3ff"/><path d="m323.58 256-131.58 75.99v-207.57c72.67 0 131.58 58.91 131.58 131.58z" fill="#3a80e8"/><path d="m192 223.11c.085 17.517-14.425 32.733-32.89 32.89h-98.69c0-48.7 26.46-91.22 65.78-113.97h.01v15.29c0 18.16 14.73 32.89 32.9 32.89 17.523-.082 32.734 14.424 32.89 32.9z" fill="#bde760"/><path d="m323.58 256c0 72.67-58.91 131.58-131.58 131.58-23.97 0-46.44-6.41-65.79-17.6v-15.3c0-18.16 14.73-32.89 32.9-32.89h32.89c18.17 0 32.89-14.73 32.89-32.9-.08-17.52 14.42-32.73 32.9-32.89z" fill="#bde760"/><path d="m323.58 256c0 72.67-58.91 131.58-131.58 131.58v-65.79c18.17 0 32.89-14.73 32.89-32.9-.08-17.52 14.42-32.73 32.9-32.89z" fill="#00d880"/></g></svg>