<?xml version="1.0" encoding="utf-8"?>
<!-- Generator: Adobe Illustrator 23.0.3, SVG Export Plug-In . SVG Version: 6.00 Build 0)  -->
<svg version="1.1" id="Layer_1" xmlns="http://www.w3.org/2000/svg" xmlns:xlink="http://www.w3.org/1999/xlink" x="0px" y="0px"
	 viewBox="0 0 24 24" style="enable-background:new 0 0 24 24;" xml:space="preserve">
<style type="text/css">
	.st0{fill:url(#SVGID_1_);}
	.st1{fill:url(#SVGID_2_);}
	.st2{fill:url(#SVGID_3_);}
	.st3{fill:url(#SVGID_4_);}
	.st4{fill:url(#SVGID_5_);}
	.st5{fill:url(#SVGID_6_);}
	.st6{fill:url(#SVGID_7_);}
	.st7{fill:url(#SVGID_8_);}
	.st8{fill:url(#SVGID_9_);}
	.st9{fill:url(#SVGID_10_);}
	.st10{fill:url(#SVGID_11_);}
	.st11{fill:url(#SVGID_12_);}
	.st12{fill:url(#SVGID_13_);}
	.st13{fill:url(#SVGID_14_);}
	.st14{fill:url(#SVGID_15_);}
	.st15{fill:url(#SVGID_16_);}
	.st16{fill:url(#SVGID_17_);}
	.st17{fill:url(#SVGID_18_);}
	.st18{fill:url(#SVGID_19_);}
	.st19{fill:url(#SVGID_20_);}
</style>
<g>
	<g>
		<linearGradient id="SVGID_1_" gradientUnits="userSpaceOnUse" x1="2.6954" y1="11.9641" x2="22.7497" y2="11.9641">
			<stop  offset="0" style="stop-color:#1245C6"/>
			<stop  offset="1" style="stop-color:#9909B7"/>
		</linearGradient>
		<path class="st0" d="M22,8.1c-0.5-1.2-1.2-2.3-2.1-3.2c-0.9-0.9-2-1.6-3.2-2.1c-1.2-0.5-2.5-0.8-3.9-0.8c-1.3,0-2.5,0.2-3.7,0.7
			c-1.2,0.5-2.3,1.2-3.2,2L4.1,3C3.9,2.8,3.6,2.7,3.2,2.8C2.9,3,2.7,3.2,2.7,3.6v5.8c0,0.2,0.1,0.4,0.2,0.6c0.2,0.2,0.4,0.2,0.6,0.2
			h5.8c0.4,0,0.6-0.2,0.8-0.5c0.1-0.3,0.1-0.6-0.2-0.9L8.2,7.1c0.6-0.6,1.3-1,2.1-1.3c0.8-0.3,1.6-0.5,2.5-0.5
			c0.9,0,1.8,0.2,2.6,0.5c0.8,0.4,1.5,0.8,2.1,1.4c0.6,0.6,1.1,1.3,1.4,2.1c0.4,0.8,0.5,1.7,0.5,2.6c0,0.9-0.2,1.8-0.5,2.6
			c-0.4,0.8-0.8,1.5-1.4,2.1c-0.6,0.6-1.3,1.1-2.1,1.4c-0.8,0.4-1.7,0.5-2.6,0.5c-1,0-2-0.2-2.9-0.7c-0.9-0.5-1.7-1.1-2.3-1.9
			c-0.1-0.1-0.2-0.1-0.3-0.2c-0.1,0-0.2,0-0.3,0.1L5,17.8C5,17.9,4.9,18,4.9,18.1c0,0.1,0,0.2,0.1,0.3c0.9,1.1,2.1,2,3.4,2.7
			c1.3,0.6,2.8,0.9,4.3,0.9c1.4,0,2.7-0.3,3.9-0.8c1.2-0.5,2.3-1.2,3.2-2.1c0.9-0.9,1.6-2,2.1-3.2c0.5-1.2,0.8-2.5,0.8-3.9
			C22.7,10.6,22.5,9.3,22,8.1z"/>
	</g>
</g>
</svg>
